# xmcd
#
# Track frame offsets:
#	150
#	22103
#	35126
#	53498
#	75620
#	86349
#	103395
#	118374
#	142233
#	162608
#	172256
#	188983
#	209758
#	223712
#	236755
#	249403
#	275821
#	304622
#	321246
#
# Disc length: 4716
#
# Revision: 5
# Processed by: cddbd v1.5.1PL0 Copyright (c) Steve Scherf et al.
# Submitted via: CDex 1.50Beta7
# Normalized: r3:TSWAP
#
DISCID=31126a13
DTITLE=Various (coKS-Mix) - Boogie´N´Blues
DYEAR=2000
DGENRE=Blues
TTITLE0=Alex Harvey Band - Framed
TTITLE1=Gary Moore - Walking By Myself
TTITLE2=Johnny Lang - Lie To Me
TTITLE3=B.B. King and Eric Clapton - Marry You
TTITLE4=Calvin Russell - Texas Bop
TTITLE5=Robert Cray - Who´s Been Talking
TTITLE6=Jethro Tull - Song For Jeffrey
TTITLE7=Brainbox - Dark Rose
TTITLE8=George Thorogood - I Drink Alone
TTITLE9=Little Feat - Teenage Nervous Breakdown
TTITLE10=Robben Ford - Start It Up
TTITLE11=Right Said Fred - Do Ya Feel
TTITLE12=Canned Heat - Rollin´ And Tumblin´
TTITLE13=Jim Callahan - Railroad Blues #10
TTITLE14=Simon and Garfunkel - Patterns
TTITLE15=Calvin Russell - Soldier
TTITLE16=Brainbox - Scarborough Fair
TTITLE17=Vince Weber - Beat Me Daddy, Eight To The Bar
TTITLE18=Gary Moore - Looking For Somebody
EXTD=YEAR: 2000
EXTT0=
EXTT1=
EXTT2=
EXTT3=
EXTT4=
EXTT5=
EXTT6=
EXTT7=
EXTT8=
EXTT9=
EXTT10=
EXTT11=
EXTT12=
EXTT13=
EXTT14=
EXTT15=
EXTT16=
EXTT17=
EXTT18=
PLAYORDER=
